# Blender 4.0.2
# www.blender.org
mtllib vemt.mtl
o Cube.036
v 24.041899 11.708672 0.862554
v 24.041899 13.198845 0.862554
v 23.822437 11.708672 0.862554
v 23.822437 13.198845 0.862554
v 25.499981 11.743392 0.814981
v 24.041899 11.708672 -0.627620
v 25.499981 13.153997 0.814981
v 24.041899 13.198845 -0.627620
v 24.084291 11.743392 0.806828
v 25.499981 11.743392 -0.595625
v 23.822437 11.708672 -0.627620
v 23.822437 13.198845 -0.627620
v 25.499981 13.153997 -0.595625
v 23.041489 13.198845 0.862554
v 25.494898 11.743392 0.806828
v 23.041489 11.708672 0.862554
v 23.041489 11.708672 -0.627620
v 23.041489 13.198845 -0.627620
v 22.602016 13.198845 0.862554
v 22.602016 11.708672 0.862554
v 22.602015 11.708672 -0.627620
v 22.602015 13.198845 -0.627620
v 17.949465 11.708672 -6.100520
v 25.476074 11.743392 -17.201485
v 17.949465 13.198845 -6.100520
v 25.476074 13.153997 -17.201485
v 25.476074 11.743392 -18.612091
v 17.949465 11.708672 -8.100520
v 17.949465 13.198845 -8.100520
v 25.476074 13.153997 -18.612091
v 19.439638 11.708672 -6.100520
v 19.439638 13.198845 -6.100520
v 19.439638 11.708672 -8.100520
v 19.439638 13.198845 -8.100520
v 17.949465 13.198845 -15.217481
v 17.949465 11.708672 -15.217481
v 19.439638 11.708672 -15.217481
v 19.439638 13.198845 -15.217481
v 17.949465 13.198845 -19.222488
v 17.949465 11.708672 -19.222488
v 19.439638 11.708672 -19.222488
v 19.439638 13.198845 -19.222488
v 24.042034 11.708672 0.863144
v 24.042034 13.198845 0.863144
v 24.042034 11.708672 -1.136855
v 24.042034 13.198845 -1.136855
v 25.532207 11.708672 0.863144
v 25.532207 13.198845 0.863144
v 25.532207 11.708672 -1.136856
v 25.532207 13.198845 -1.136856
v 24.042034 13.198845 -8.253817
v 24.042034 11.708672 -8.253817
v 25.532207 11.708672 -8.253817
v 25.532207 13.198845 -8.253817
v 24.042034 13.198845 -12.258824
v 24.042034 11.708672 -12.258824
v 25.532207 11.708672 -12.258824
v 25.532207 13.198845 -12.258824
v 24.042034 13.198845 -19.200199
v 24.042034 11.708672 -19.200199
v 25.532207 11.708672 -19.200199
v 25.532207 13.198845 -19.200199
v 25.519142 11.708672 -17.156586
v 25.519142 13.198845 -17.156586
v 23.978455 11.708672 -17.156586
v 23.978455 13.198845 -17.156586
v 25.519142 11.708672 -18.646759
v 25.519142 13.198845 -18.646759
v 23.978455 11.708672 -18.646759
v 23.978455 13.198845 -18.646759
v 18.495941 13.198845 -17.156586
v 18.495941 11.708672 -17.156586
v 18.495941 11.708672 -18.646759
v 18.495941 13.198845 -18.646759
v 15.410707 13.198845 -17.156586
v 15.410707 11.708672 -17.156586
v 15.410707 11.708672 -18.646759
v 15.410707 13.198845 -18.646759
v 24.041899 13.153997 0.814981
v 24.041899 11.743392 -0.595625
v 24.041899 13.153997 -0.595625
v 24.041899 11.743392 0.814981
v 22.602016 13.153997 0.814981
v 22.602016 11.743392 0.814981
v 22.602015 11.743392 -0.595625
v 22.602015 13.153997 -0.595625
v 24.042034 13.153997 -0.595625
v 24.042034 13.153997 0.814981
v 24.042034 11.743392 0.814981
v 24.042034 11.743392 -0.595625
v 19.400295 13.153996 -6.100520
v 19.400295 11.743390 -6.100520
v 17.989691 11.743390 -6.100520
v 17.989691 13.153996 -6.100520
v 19.439638 11.743392 -17.201485
v 19.439638 11.743392 -18.612091
v 19.439638 13.153997 -17.201485
v 19.439638 13.153997 -18.612091
v 17.949465 13.153997 -18.612091
v 17.949465 13.153997 -17.201485
v 17.949465 11.743392 -17.201485
v 17.949465 11.743392 -18.612091
v 24.042034 13.153997 -17.201485
v 24.042034 13.153997 -18.612091
v 24.042034 11.743392 -17.201485
v 24.042034 11.743392 -18.612091
v 25.494896 11.743392 -17.156586
v 25.494896 13.153997 -17.156586
v 24.084290 13.153997 -17.156586
v 24.084290 11.743392 -17.156586
v 19.400295 13.153996 -17.156586
v 19.400295 11.743390 -17.156586
v 18.495941 11.743390 -17.156586
v 18.495941 13.153996 -17.156586
v 15.410707 13.153997 -17.201485
v 15.410707 11.743392 -17.201485
v 15.410707 11.743392 -18.612091
v 15.410707 13.153997 -18.612091
v 17.989689 13.153996 -17.156586
v 17.989689 11.743390 -17.156586
v 25.494898 11.743392 -0.595625
v 24.084291 11.743392 -0.595625
v 25.494898 13.153997 -0.595625
v 24.084291 13.153997 -0.595625
vn -0.0000 -0.0000 1.0000
vn -0.0000 1.0000 -0.0000
vn -0.0000 -0.0000 -1.0000
vn 1.0000 -0.0000 -0.0000
vn -0.0000 -1.0000 -0.0000
vn -1.0000 -0.0000 -0.0000
vt 0.928376 0.453361
vt 0.908422 0.453361
vt 0.908422 0.433408
vt 0.928376 0.433408
vt 0.908422 0.675963
vt 0.928376 0.675963
vt 0.928376 0.746966
vt 0.908422 0.746966
vt 0.928376 0.509182
vt 0.908422 0.509182
vt 0.908422 0.489229
vt 0.928376 0.489229
vt 0.823354 0.264633
vt 0.823819 0.265062
vt 0.803866 0.265062
vt 0.804466 0.264633
vt 0.804466 0.245745
vt 0.803866 0.245108
vt 0.823819 0.245108
vt 0.823354 0.245745
vt 0.934396 0.037887
vt 0.914443 0.037887
vt 0.914443 0.017934
vt 0.934396 0.017934
vt 0.908422 0.656010
vt 0.928376 0.656010
vt 0.908422 0.580185
vt 0.928376 0.580185
vt 0.928376 0.620142
vt 0.908422 0.620142
vt 0.908422 0.362404
vt 0.928376 0.362404
vt 0.934396 0.108890
vt 0.914443 0.108890
vt 0.879640 0.245108
vt 0.879640 0.265062
vt 0.879212 0.264597
vt 0.879212 0.245709
vt 0.859687 0.265062
vt 0.859687 0.245108
vt 0.860324 0.245709
vt 0.860324 0.264597
vt 0.934396 0.148847
vt 0.914443 0.148847
vt 0.928376 0.786923
vt 0.908422 0.786923
vt 0.908422 0.322448
vt 0.928376 0.322448
vt 0.767998 0.193636
vt 0.748045 0.193636
vt 0.748045 0.166856
vt 0.767998 0.166856
vt 0.761977 0.471370
vt 0.626492 0.471370
vt 0.626492 0.376074
vt 0.761977 0.376074
vt 0.372815 0.625624
vt 0.352861 0.625624
vt 0.352861 0.598844
vt 0.372815 0.598844
vt 0.798446 0.454356
vt 0.797845 0.457933
vt 0.797845 0.322448
vt 0.817799 0.322448
vt 0.817799 0.457933
vt 0.817334 0.454356
vt 0.817334 0.326105
vt 0.798446 0.326105
vt 0.626492 0.682939
vt 0.761977 0.682939
vt 0.761977 0.709719
vt 0.626492 0.709719
vt 0.761977 0.498149
vt 0.626492 0.498149
vt 0.372815 0.774545
vt 0.352861 0.774545
vt 0.353462 0.766372
vt 0.372350 0.766372
vt 0.352861 0.720919
vt 0.372815 0.720919
vt 0.372350 0.747485
vt 0.353462 0.747485
vt 0.748045 0.071561
vt 0.767998 0.071561
vt 0.626492 0.587644
vt 0.761977 0.587644
vt 0.817799 0.629286
vt 0.797845 0.629286
vt 0.797845 0.493801
vt 0.817799 0.493801
vt 0.626492 0.534017
vt 0.761977 0.534017
vt 0.626492 0.322448
vt 0.761977 0.322448
vt 0.748645 0.026107
vt 0.748045 0.017934
vt 0.767998 0.017934
vt 0.767533 0.026107
vt 0.748645 0.044995
vt 0.767533 0.044995
vt 0.241819 0.571561
vt 0.241819 0.590449
vt 0.241219 0.591094
vt 0.241219 0.564314
vt 0.261172 0.564314
vt 0.261172 0.591094
vt 0.260707 0.590449
vt 0.260707 0.571561
vt 0.376704 0.259800
vt 0.241219 0.259800
vt 0.241219 0.164505
vt 0.376704 0.164505
vt 0.316993 0.349228
vt 0.297040 0.349228
vt 0.297040 0.322448
vt 0.316993 0.322448
vt 0.817799 0.800639
vt 0.797845 0.800639
vt 0.797845 0.665154
vt 0.817799 0.665154
vt 0.412572 0.259800
vt 0.548057 0.259800
vt 0.548057 0.286580
vt 0.412572 0.286580
vt 0.376704 0.286580
vt 0.241219 0.286580
vt 0.297040 0.444523
vt 0.316993 0.444523
vt 0.316993 0.498149
vt 0.297040 0.498149
vt 0.241219 0.469019
vt 0.261172 0.469019
vt 0.412572 0.164505
vt 0.548057 0.164505
vt 0.412572 0.110878
vt 0.548057 0.110878
vt 0.241219 0.110878
vt 0.376704 0.110878
vt 0.241219 0.415392
vt 0.261172 0.415392
vt 0.316993 0.591094
vt 0.297040 0.591094
vt 0.823819 0.153419
vt 0.803866 0.153419
vt 0.803866 0.017934
vt 0.823819 0.017934
vt 0.412572 0.017934
vt 0.548058 0.017934
vt 0.241219 0.017934
vt 0.376704 0.017934
vt 0.241219 0.322448
vt 0.261172 0.322448
vt 0.260707 0.330323
vt 0.241819 0.330323
vt 0.241819 0.349210
vt 0.260707 0.349210
vt 0.018534 0.020138
vt 0.017934 0.017934
vt 0.037887 0.017934
vt 0.037422 0.020138
vt 0.037887 0.158012
vt 0.017934 0.158012
vt 0.018534 0.148389
vt 0.037422 0.148389
vt 0.149530 0.158012
vt 0.149530 0.656477
vt 0.129577 0.656477
vt 0.129577 0.158012
vt 0.093709 0.796906
vt 0.093709 0.936984
vt 0.073755 0.936984
vt 0.073755 0.796906
vt 0.767998 0.229504
vt 0.767998 0.249457
vt 0.748045 0.249457
vt 0.748045 0.229504
vt 0.185398 0.158012
vt 0.185398 0.017934
vt 0.205351 0.017934
vt 0.205351 0.158012
vt 0.129577 0.017934
vt 0.149530 0.017934
vt 0.073755 0.298441
vt 0.073755 0.017934
vt 0.093709 0.017934
vt 0.093709 0.298441
vt 0.018535 0.656477
vt 0.017934 0.656477
vt 0.037887 0.656477
vt 0.037422 0.656477
vt 0.037422 0.574254
vt 0.018535 0.574254
vt 0.205351 0.656477
vt 0.185398 0.656477
vt 0.823354 0.208776
vt 0.823819 0.209240
vt 0.803866 0.209240
vt 0.804466 0.208776
vt 0.803866 0.189287
vt 0.823819 0.189287
vt 0.823354 0.189888
vt 0.804466 0.189888
vt 0.205351 0.936984
vt 0.185398 0.936984
vt 0.149530 0.936984
vt 0.129577 0.936984
vt 0.037887 0.936984
vt 0.017934 0.936984
vt 0.018535 0.702505
vt 0.037422 0.702505
vt 0.537082 0.914844
vt 0.537082 0.915307
vt 0.518194 0.915307
vt 0.518194 0.782751
vt 0.537082 0.782751
vt 0.537082 0.786593
vt 0.518194 0.786593
vt 0.518194 0.914844
vt 0.371749 0.810414
vt 0.371749 0.941326
vt 0.352861 0.941326
vt 0.352861 0.810414
vt 0.933331 0.203603
vt 0.914443 0.203603
vt 0.914443 0.184715
vt 0.933331 0.184715
vt 0.853667 0.629286
vt 0.853667 0.496731
vt 0.872554 0.496731
vt 0.872554 0.629286
vt 0.241219 0.810869
vt 0.260107 0.810869
vt 0.260107 0.941782
vt 0.241219 0.941782
vt 0.427571 0.911465
vt 0.427571 0.915307
vt 0.408683 0.915307
vt 0.408683 0.782751
vt 0.427571 0.782751
vt 0.427571 0.783213
vt 0.408792 0.783213
vt 0.408792 0.911465
vt 0.295975 0.941782
vt 0.295975 0.810869
vt 0.314863 0.810869
vt 0.314863 0.941782
vt 0.463438 0.782751
vt 0.482326 0.782751
vt 0.482326 0.915307
vt 0.463438 0.915307
vt 0.908422 0.822791
vt 0.927310 0.822791
vt 0.927310 0.953704
vt 0.908422 0.953704
vt 0.295975 0.626962
vt 0.314863 0.626962
vt 0.314863 0.775001
vt 0.295975 0.775001
vt 0.241219 0.775001
vt 0.241219 0.626962
vt 0.260107 0.626962
vt 0.260107 0.775001
vt 0.536934 0.746883
vt 0.408683 0.746883
vt 0.408683 0.598844
vt 0.490906 0.598844
vt 0.536934 0.598844
vt 0.626492 0.893627
vt 0.626492 0.745587
vt 0.754743 0.745587
vt 0.754743 0.893627
vt 0.708715 0.893627
vt 0.535868 0.322448
vt 0.535868 0.562976
vt 0.516980 0.562976
vt 0.516980 0.341227
vt 0.535868 0.341227
vt 0.571736 0.544197
vt 0.571736 0.322448
vt 0.590624 0.322448
vt 0.590624 0.562976
vt 0.590624 0.544197
vt 0.481112 0.322448
vt 0.481112 0.562976
vt 0.352861 0.562976
vt 0.352861 0.322448
vt 0.712177 0.017934
vt 0.712177 0.239683
vt 0.583925 0.239683
vt 0.583925 0.017934
vt 0.982066 0.953172
vt 0.963178 0.953172
vt 0.963178 0.822791
vt 0.982066 0.822791
vt 0.859687 0.153419
vt 0.859687 0.017934
vt 0.878575 0.017934
vt 0.878575 0.153419
vt 0.878575 0.190353
vt 0.878575 0.209240
vt 0.859687 0.209240
vt 0.859687 0.190353
vt 0.797845 0.966889
vt 0.797845 0.836507
vt 0.816733 0.836507
vt 0.816733 0.966889
vt 0.853667 0.457933
vt 0.853667 0.322448
vt 0.872554 0.322448
vt 0.872554 0.457933
vt 0.852601 0.836507
vt 0.871489 0.836507
vt 0.871489 0.966889
vt 0.852601 0.966889
vt 0.853667 0.665154
vt 0.872554 0.665154
vt 0.872554 0.800639
vt 0.853667 0.800639
s 0
usemtl Material.028
f 1/1/1 2/2/1 4/3/1 3/4/1
f 4/5/2 12/6/2 18/7/2 14/8/2
f 11/9/3 12/10/3 8/11/3 6/12/3
f 80/13/4 6/14/4 8/15/4 81/16/4
f 79/17/4 81/16/4 8/15/4 2/18/4 1/19/4 6/14/4 80/13/4 82/20/4
f 3/21/5 11/22/5 6/23/5 1/24/5
f 12/6/2 4/5/2 2/25/2 8/26/2
f 18/27/3 17/28/3 21/29/3 22/30/3
f 3/4/1 4/3/1 14/31/1 16/32/1
f 12/10/3 11/9/3 17/28/3 18/27/3
f 11/22/5 3/21/5 16/33/5 17/34/5
f 22/35/6 21/36/6 85/37/6 86/38/6
f 85/37/6 21/36/6 20/39/6 19/40/6 22/35/6 86/38/6 83/41/6 84/42/6
f 17/34/5 16/33/5 20/43/5 21/44/5
f 14/8/2 18/7/2 22/45/2 19/46/2
f 16/32/1 14/31/1 19/47/1 20/48/1
f 23/49/6 25/50/6 29/51/6 28/52/6
f 29/53/2 34/54/2 38/55/2 35/56/2
f 33/57/4 34/58/4 32/59/4 31/60/4
f 91/61/1 32/62/1 25/63/1 23/64/1 31/65/1 92/66/1 93/67/1 94/68/1
f 31/65/1 32/62/1 91/61/1 92/66/1
f 28/69/5 33/70/5 31/71/5 23/72/5
f 34/54/2 29/53/2 25/73/2 32/74/2
f 41/75/4 42/76/4 98/77/4 96/78/4
f 98/77/4 42/76/4 38/79/4 37/80/4 41/75/4 96/78/4 95/81/4 97/82/4
f 28/52/6 29/51/6 35/83/6 36/84/6
f 34/58/4 33/57/4 37/80/4 38/79/4
f 33/70/5 28/69/5 36/85/5 37/86/5
f 40/87/3 39/88/3 42/89/3 41/90/3
f 37/86/5 36/85/5 40/91/5 41/92/5
f 35/56/2 38/55/2 42/93/2 39/94/2
f 99/95/6 39/96/6 40/97/6 102/98/6
f 40/97/6 36/84/6 35/83/6 39/96/6 99/95/6 100/99/6 101/100/6 102/98/6
f 87/101/6 88/102/6 44/103/6 46/104/6 45/105/6 43/106/6 89/107/6 90/108/6
f 43/106/6 44/103/6 88/102/6 89/107/6
f 46/109/2 50/110/2 54/111/2 51/112/2
f 49/113/4 50/114/4 48/115/4 47/116/4
f 47/117/1 48/118/1 44/119/1 43/120/1
f 45/121/5 49/122/5 47/123/5 43/124/5
f 50/110/2 46/109/2 44/125/2 48/126/2
f 54/127/4 53/128/4 57/129/4 58/130/4
f 45/105/6 46/104/6 51/131/6 52/132/6
f 50/114/4 49/113/4 53/128/4 54/127/4
f 49/122/5 45/121/5 52/133/5 53/134/5
f 53/134/5 52/133/5 56/135/5 57/136/5
f 51/112/2 54/111/2 58/137/2 55/138/2
f 52/132/6 51/131/6 55/139/6 56/140/6
f 58/130/4 57/129/4 61/141/4 62/142/4
f 60/143/3 59/144/3 62/145/3 61/146/3
f 57/136/5 56/135/5 60/147/5 61/148/5
f 55/138/2 58/137/2 62/149/2 59/150/2
f 59/151/6 60/152/6 106/153/6 104/154/6
f 60/152/6 56/140/6 55/139/6 59/151/6 104/154/6 103/155/6 105/156/6 106/153/6
f 108/157/3 64/158/3 63/159/3 107/160/3
f 107/160/3 63/159/3 65/161/3 66/162/3 64/158/3 108/157/3 109/163/3 110/164/3
f 66/165/5 71/166/5 74/167/5 70/168/5
f 69/169/1 67/170/1 68/171/1 70/172/1
f 67/173/6 63/174/6 64/175/6 68/176/6
f 65/177/2 63/178/2 67/179/2 69/180/2
f 70/168/5 68/181/5 64/182/5 66/165/5
f 74/183/1 78/184/1 77/185/1 73/186/1
f 114/187/3 71/188/3 66/162/3 65/161/3 72/189/3 113/190/3 112/191/3 111/192/3
f 70/172/1 74/183/1 73/186/1 69/169/1
f 69/180/2 73/193/2 72/194/2 65/177/2
f 117/195/4 77/196/4 78/197/4 118/198/4
f 118/198/4 78/197/4 75/199/4 76/200/4 77/196/4 117/195/4 116/201/4 115/202/4
f 73/193/2 77/203/2 76/204/2 72/194/2
f 71/166/5 75/205/5 78/206/5 74/167/5
f 113/190/3 72/189/3 76/207/3 75/208/3 71/188/3 114/187/3 119/209/3 120/210/3
f 121/211/1 10/212/1 13/213/1 87/214/1 90/215/1 122/216/1 124/217/1 123/218/1
f 85/219/1 80/220/1 81/221/1 86/222/1
f 10/223/6 5/224/6 7/225/6 13/226/6
f 88/227/3 7/228/3 5/229/3 89/230/3
f 79/231/3 82/232/3 84/233/3 83/234/3
f 122/235/2 90/236/2 89/237/2 5/238/2 10/239/2 121/240/2 15/241/2 9/242/2
f 84/243/2 82/244/2 80/245/2 85/246/2
f 13/247/5 7/248/5 88/249/5 87/250/5
f 81/251/5 79/252/5 83/253/5 86/254/5
f 94/255/4 93/256/4 120/257/4 119/258/4
f 91/259/6 111/260/6 112/261/6 92/262/6
f 93/263/2 92/264/2 112/265/2 113/266/2 120/267/2
f 111/268/5 91/269/5 94/270/5 119/271/5 114/272/5
f 9/273/4 110/274/4 109/275/4 124/276/4 122/277/4
f 123/278/6 108/279/6 107/280/6 15/281/6 121/282/6
f 110/283/2 9/284/2 15/285/2 107/286/2
f 124/287/5 109/288/5 108/289/5 123/290/5
f 27/291/1 30/292/1 104/293/1 106/294/1
f 98/295/1 99/296/1 102/297/1 96/298/1
f 27/299/6 24/300/6 26/301/6 30/302/6
f 105/303/2 24/304/2 27/305/2 106/306/2
f 101/307/2 95/308/2 96/309/2 102/310/2
f 30/311/5 26/312/5 103/313/5 104/314/5
f 98/315/5 97/316/5 100/317/5 99/318/5
